<svg id="Capa_1" enable-background="new 0 0 512 512" height="512" viewBox="0 0 512 512" width="512" xmlns="http://www.w3.org/2000/svg"><g><g><path d="m510.166 360.409-98.23-113.343c-1.415-1.629-3.523-2.59-5.681-2.593h-130.06l-20.195 9-20.195-9h-130.06c-2.158.003-4.265.965-5.681 2.593l-98.23 113.343c-2.717 3.134-2.375 7.876.762 10.589 3.123 2.705 7.874 2.383 10.6-.761l85.034-98.117v199.393c0 22.469 10.09 31.469 22.491 31.469h270.557c12.402 0 22.491-9 22.491-31.469v-199.393l85.035 98.117c2.726 3.145 7.476 3.466 10.6.761 3.138-2.713 3.479-7.454.762-10.589z" fill="#ffde8f"/><g><g><g><path d="m391.278 493.982h-270.556c-12.402 0-22.491-10.08-22.491-22.469v18.018c0 12.39 10.09 22.469 22.491 22.469h115.083l20.195-9 20.195 9h115.083c12.402 0 22.491-10.08 22.491-22.469v-18.018c.001 12.39-10.089 22.469-22.491 22.469z" fill="#f9cd7f"/></g></g></g><path d="m276.195 244.473h-40.39v249.509l20.195 9 20.195-9z" fill="#ff4d54"/><path d="m235.805 493.982h40.39v18.018h-40.39z" fill="#ea4955"/><g><path d="m237.142 165.765c0 13.25 10.536 20.894 18.858 20.894s18.858-7.923 18.858-20.894c-3.371-7.028-10.536-11.894-18.858-11.894s-15.487 4.866-18.858 11.894z" fill="#b1e7a1"/><path d="m256 177.659c-8.322 0-15.487-4.866-18.858-11.894-1.31 2.731-2.065 5.778-2.065 9.009 0 11.544 9.368 20.903 20.923 20.903 11.556 0 20.923-9.358 20.923-20.903 0-3.23-.755-6.278-2.065-9.009-3.371 7.028-10.536 11.894-18.858 11.894z" fill="#97d4a8"/><path d="m300.283 82.628c0 13.25 10.536 20.894 18.858 20.894s18.858-7.923 18.858-20.894c-3.371-7.028-10.536-11.894-18.858-11.894s-15.488 4.865-18.858 11.894z" fill="#9dc6fa"/><path d="m319.141 94.522c-8.322 0-15.488-4.866-18.858-11.894-1.31 2.731-2.065 5.778-2.065 9.009 0 11.544 9.368 20.903 20.923 20.903s20.923-9.358 20.923-20.903c0-3.23-.755-6.278-2.065-9.009-3.371 7.028-10.537 11.894-18.858 11.894z" fill="#7eb7f6"/><path d="m175.209 89.552c0 13.25 10.536 20.894 18.858 20.894s18.858-7.923 18.858-20.894c-3.371-7.028-10.536-11.894-18.858-11.894s-15.488 4.865-18.858 11.894z" fill="#ffa5d5"/><path d="m58.12 107.711c-2.994 6.1-7.966 13.779-15.928 20.317-2.177 1.788-2.177 5.171 0 6.959 7.962 6.538 12.934 14.217 15.928 20.317 1.661 3.385 6.461 3.385 8.122 0 2.994-6.1 7.966-13.779 15.928-20.317 2.177-1.788 2.177-5.171 0-6.959-7.962-6.538-12.934-14.217-15.928-20.317-1.66-3.385-6.46-3.385-8.122 0z" fill="#ffde8f"/><path d="m453.88 107.711c2.994 6.1 7.966 13.779 15.928 20.317 2.177 1.788 2.177 5.171 0 6.959-7.962 6.538-12.934 14.217-15.928 20.317-1.661 3.385-6.461 3.385-8.122 0-2.994-6.1-7.966-13.779-15.928-20.317-2.177-1.788-2.177-5.171 0-6.959 7.962-6.538 12.934-14.217 15.928-20.317 1.66-3.385 6.46-3.385 8.122 0z" fill="#ffde8f"/><path d="m194.067 101.446c-8.322 0-15.487-4.866-18.858-11.894-1.31 2.731-2.065 5.778-2.065 9.009 0 11.544 9.368 20.903 20.923 20.903 11.556 0 20.923-9.358 20.923-20.903 0-3.23-.755-6.278-2.065-9.009-3.371 7.028-10.536 11.894-18.858 11.894z" fill="#ff92d0"/></g></g><g fill="#ff4d54"><path d="m66.249 52.001c.607.509 61.022 51.961 85.909 142.157 2.513 9.484 17.241 5.343 14.518-3.998-26.191-94.92-88.139-147.505-90.762-149.697-3.189-2.662-7.93-2.239-10.6.943-2.668 3.183-2.248 7.926.935 10.595z"/><path d="m353.805 43.81c3.579 1.971 8.212.679 10.214-3 .097-.176 9.765-17.738 21.005-27.647 3.118-2.748 3.415-7.502.664-10.617-2.751-3.115-7.508-3.412-10.627-.663-13.254 11.684-23.82 30.914-24.263 31.727-1.989 3.646-.643 8.211 3.007 10.2z"/><path d="m126.976 13.163c11.24 9.909 20.909 27.471 21.006 27.647 2.001 3.681 6.632 4.971 10.212 3.003 3.651-1.987 4.999-6.556 3.009-10.204-.443-.812-11.009-20.042-24.264-31.726-3.119-2.75-7.877-2.452-10.627.663-2.752 3.115-2.455 7.869.664 10.617z"/><path d="m248.471 74.283c0 4.154 3.371 7.522 7.529 7.522s7.529-3.368 7.529-7.522c0-31.003-11.813-50.065-12.316-50.862-2.213-3.503-6.833-4.547-10.35-2.351-3.516 2.194-4.585 6.83-2.403 10.351.1.162 10.011 16.466 10.011 42.862z"/><path d="m350.583 199.41c3.901 1.107 8.168-1.214 9.26-5.253 24.842-90.036 85.087-141.465 85.905-142.154 3.189-2.665 3.612-7.408.945-10.595-2.668-3.186-7.415-3.61-10.606-.946-2.624 2.192-64.572 54.777-90.761 149.696-1.106 4.006 1.248 8.148 5.257 9.252z"/></g></g></svg>